<?xml version="1.0" encoding="utf-8"?>
<!-- Generator: Adobe Illustrator 16.0.0, SVG Export Plug-In . SVG Version: 6.00 Build 0)  -->
<!DOCTYPE svg PUBLIC "-//W3C//DTD SVG 1.1//EN" "http://www.w3.org/Graphics/SVG/1.1/DTD/svg11.dtd">
<svg version="1.1" xmlns="http://www.w3.org/2000/svg" xmlns:xlink="http://www.w3.org/1999/xlink" x="0px" y="0px" width="3000px"
	 height="3000px" viewBox="0 0 3000 3000" enable-background="new 0 0 3000 3000" xml:space="preserve">
<g id="Layer_1">
	<path fill-rule="evenodd" clip-rule="evenodd" d="M1327.751,953.34c7.159,2.762,14.65,4.888,21.418,8.414
		c15.938,8.301,19.496,24.353,21.687,39.858c10.093,71.483,19.165,143.124,29.112,214.63
		c9.948,71.526,20.694,142.935,30.728,214.456c7.921,56.521,15.104,113.15,22.965,169.684
		c7.854,56.521,16.275,112.975,24.203,169.485c6.833,48.743,13.22,97.538,20,146.285c6.851,49.226,14.021,98.414,20.899,147.635
		c6.81,48.701,13.392,97.434,20.145,146.144c6.816,49.212,13.839,98.399,20.559,147.631c5.091,37.319,10.724,74.597,14.433,112.065
		c2.464,24.941-8.833,38.168-34.166,38.759c-58.444,1.373-116.927,0.923-175.395,1.154c-14.741,0.053-29.551,0.653-44.222-0.411
		c-25.086-1.817-38.895-14.14-42.028-38.816c-6.012-47.313-10.741-94.793-16.345-142.163
		c-5.846-49.438-12.327-98.796-18.118-148.235c-5.795-49.443-10.848-98.967-16.642-148.415
		c-5.789-49.41-12.268-98.745-18.106-148.155c-4.734-40.062-8.781-80.203-13.478-120.274
		c-4.754-40.553-10.023-81.055-14.882-121.599c-3.555-29.646-6.537-59.37-10.471-88.97c-0.682-5.122-4.827-9.785-7.375-14.665
		c-3.072,4.236-7.863,8.062-8.968,12.762c-24.636,104.667-48.78,209.451-73.199,314.17
		c-38.414,164.733-76.946,329.443-115.462,494.147c-8.791,37.595-17.413,75.231-26.665,112.714
		c-6.296,25.486-18.151,36.545-43.745,37.16c-47.382,1.148-94.825,1.286-142.212,0.336c-25.782-0.517-40.601-13.895-46.471-38.902
		c-23.493-100.164-46.642-200.406-69.962-300.608c-42.456-182.445-84.925-364.878-127.438-547.311
		c-5.812-24.923-11.667-49.841-18.064-74.616c-0.956-3.693-5.018-6.6-7.64-9.871c-2.519,3.304-6.774,6.371-7.276,9.96
		c-4.215,30.083-7.739,60.256-11.475,90.409c-5.99,48.354-12.061,96.705-17.952,145.068c-5.7,46.821-11.122,93.672-16.835,140.487
		c-5.903,48.368-12.121,96.689-17.981,145.055c-5.738,47.327-11.053,94.707-16.826,142.034
		c-5.834,47.824-12.057,95.605-17.997,143.413c-4.589,36.898-9.306,73.783-13.397,110.739c-3.351,30.315-16.073,43.985-46.059,44.26
		c-69.536,0.635-139.09,0.78-208.628,0.052c-32.792-0.354-44.305-12.415-41.102-45.045c4.031-41.122,10.994-81.964,16.88-122.887
		c6.784-47.148,13.83-94.243,20.66-141.373c7.875-54.365,15.585-108.761,23.482-163.123c6.835-47.091,13.846-94.172,20.771-141.248
		c8.137-55.356,16.352-110.692,24.366-166.054c7.794-53.836,15.337-107.705,23.054-161.561
		c7.723-53.847,15.515-107.683,23.299-161.514c6.972-48.169,13.905-96.345,20.984-144.506
		c7.993-54.375,16.14-108.737,24.201-163.104c4.376-29.523,10.426-58.937,12.596-88.625c2.22-30.305,13.601-50.776,44.876-56.916
		c83.244,0,166.489,0,249.735,0c30.081,5.807,41.226,26.232,47.394,54.54c29.236,134.129,60.132,267.885,90.185,401.833
		c30.03,133.836,59.718,267.739,89.654,401.584c6.608,29.524,13.636,58.963,20.471,88.436c8.49-21.586,13.41-43.168,18.324-64.753
		c32.312-141.964,64.703-283.923,96.916-425.91c29.998-132.241,60.142-264.448,89.41-396.843
		c6.234-28.186,14.951-52.385,47.122-58.887C1157.047,953.34,1242.398,953.34,1327.751,953.34z"/>
	<path fill-rule="evenodd" clip-rule="evenodd" fill="#FFFFFF" d="M1071.696,953.34c-32.171,6.502-40.888,30.701-47.122,58.887
		c-29.269,132.395-59.412,264.602-89.41,396.843c-32.213,141.987-64.604,283.946-96.916,425.91
		c-4.914,21.585-9.833,43.167-18.324,64.753c-6.835-29.473-13.863-58.911-20.471-88.436
		c-29.936-133.845-59.624-267.748-89.654-401.584c-30.052-133.949-60.949-267.704-90.185-401.833
		c-6.168-28.307-17.313-48.733-47.394-54.54C738.711,953.34,905.204,953.34,1071.696,953.34z"/>
</g>
<g id="Layer_2">
	<path fill-rule="evenodd" clip-rule="evenodd" d="M1694.85,2509.783c-7.16-2.761-14.651-4.887-21.418-8.413
		c-15.936-8.302-19.496-24.354-21.685-39.857c-10.095-71.483-19.168-143.123-29.114-214.631
		c-9.948-71.531-20.694-142.939-30.727-214.454c-7.922-56.521-15.105-113.15-22.964-169.69
		c-7.855-56.52-16.276-112.97-24.206-169.479c-6.833-48.744-13.217-97.539-20-146.291c-6.849-49.221-14.021-98.409-20.898-147.63
		c-6.81-48.7-13.393-97.433-20.143-146.143c-6.819-49.212-13.841-98.4-20.561-147.635c-5.088-37.315-10.724-74.593-14.432-112.061
		c-2.464-24.946,8.833-38.167,34.165-38.76c58.445-1.372,116.927-0.927,175.396-1.157c14.74-0.052,29.55-0.653,44.223,0.41
		c25.088,1.82,38.894,14.142,42.027,38.821c6.012,47.311,10.741,94.792,16.346,142.162c5.849,49.439,12.327,98.797,18.12,148.236
		c5.792,49.444,10.848,98.967,16.64,148.411c5.789,49.41,12.268,98.745,18.106,148.155c4.733,40.066,8.78,80.207,13.477,120.278
		c4.755,40.554,10.023,81.055,14.883,121.6c3.555,29.642,6.537,59.365,10.471,88.971c0.682,5.116,4.829,9.783,7.375,14.664
		c3.072-4.236,7.863-8.062,8.969-12.763c24.636-104.671,48.779-209.451,73.199-314.175
		c38.414-164.732,76.945-329.438,115.464-494.146c8.788-37.595,17.41-75.23,26.665-112.714
		c6.293-25.486,18.149-36.539,43.741-37.155c47.383-1.15,94.826-1.288,142.214-0.336c25.783,0.517,40.6,13.894,46.47,38.897
		c23.493,100.17,46.641,200.406,69.962,300.609c42.457,182.451,84.922,364.883,127.438,547.315
		c5.814,24.918,11.664,49.842,18.06,74.611c0.96,3.697,5.026,6.604,7.649,9.87c2.523-3.299,6.775-6.371,7.273-9.955
		c4.217-30.081,7.735-60.26,11.473-90.409c5.986-48.358,12.057-96.703,17.957-145.068c5.695-46.82,11.113-93.67,16.825-140.491
		c5.917-48.364,12.126-96.686,17.991-145.05c5.729-47.327,11.045-94.707,16.825-142.035c5.831-47.824,12.057-95.606,17.99-143.412
		c4.598-36.904,9.314-73.784,13.394-110.745c3.361-30.313,16.089-43.981,46.069-44.256c69.528-0.636,139.091-0.781,208.619-0.052
		c32.79,0.351,44.317,12.417,41.112,45.046c-4.033,41.119-10.996,81.964-16.877,122.882c-6.792,47.147-13.841,94.248-20.666,141.377
		c-7.873,54.366-15.594,108.761-23.48,163.119c-6.844,47.095-13.841,94.176-20.77,141.252
		c-8.148,55.356-16.361,110.688-24.369,166.054c-7.788,53.837-15.332,107.706-23.053,161.562
		c-7.718,53.841-15.523,107.678-23.306,161.514c-6.968,48.17-13.894,96.346-20.979,144.506
		c-7.992,54.377-16.138,108.732-24.199,163.1c-4.375,29.527-10.429,58.939-12.606,88.628c-2.21,30.307-13.601,50.775-44.866,56.915
		c-83.248,0-166.497,0-249.737,0c-30.083-5.805-41.228-26.236-47.396-54.538c-29.235-134.129-60.133-267.885-90.182-401.835
		c-30.033-133.834-59.721-267.736-89.656-401.582c-6.608-29.524-13.635-58.963-20.469-88.435
		c-8.492,21.581-13.412,43.166-18.326,64.747c-32.313,141.968-64.703,283.923-96.916,425.914
		c-29.995,132.24-60.141,264.448-89.41,396.841c-6.233,28.188-14.951,52.388-47.121,58.888
		C1865.554,2509.783,1780.205,2509.783,1694.85,2509.783z"/>
</g>
</svg>
